<svg xmlns="http://www.w3.org/2000/svg" viewBox="0 0 266.62 48.19"><title>logo</title><path d="M148.12,18.41h2.25v-2.3h-2.25Zm6.15,0h2.25v-2.3h-2.25Zm-37.49,7.51a3.45,3.45,0,0,0,2.35-3.43,3.93,3.93,0,0,0-4.22-4h-5.11V31.59h2.53V26.34h1.83l2.58,5.26h3Zm-2-1.69h-2.44V20.75h2.44a1.73,1.73,0,0,1,1.83,1.74A1.7,1.7,0,0,1,114.76,24.23Zm35.94,2.86,1.64-4.74,1.6,4.74Zm.61-8.59-4.79,13.09h2.68l.8-2.35h4.65l.75,2.35h2.68L153.28,18.5h-2ZM63.52,27a2.19,2.19,0,0,1-2.3,2.39A2.16,2.16,0,0,1,59,27V18.5H56.43v8.59a4.81,4.81,0,0,0,9.62,0V18.5H63.52Zm13-.51-5.16-8H69V31.59h2.58V23.52l5.16,8.07h2.3V18.5H76.47Zm5.63,5.11h2.58V18.5H82.1ZM96.93,18.5H94.25L91.63,27,89,18.5H86.37l4.32,13.09h1.88Zm10.28,2.25V18.5H98.62v13h8.59V29.29h-6.05V26.1h5.16V23.85h-5.16v-3.1Zm23.13,6.94a3.68,3.68,0,0,0-1-2.77,4,4,0,0,0-2.49-1l-1.55-.23a2.66,2.66,0,0,1-1.22-.52,1.4,1.4,0,0,1-.37-.94c0-.89.66-1.64,2-1.64a3.51,3.51,0,0,1,2.68.89l1.64-1.6a5.66,5.66,0,0,0-4.22-1.55c-2.82,0-4.55,1.64-4.55,4a3.43,3.43,0,0,0,.94,2.58A4.53,4.53,0,0,0,124.71,26l1.55.23a2,2,0,0,1,1.17.42,1.52,1.52,0,0,1,.42,1.13c0,1-.85,1.59-2.35,1.59a4.44,4.44,0,0,1-3.14-1.08L120.72,30a6.07,6.07,0,0,0,4.79,1.74C128.22,31.69,130.34,30.23,130.34,27.7Zm5-9.19h-2.53V31.59h2.53Zm11.59,0h-9.38v2.25H141V31.55h2.53V20.75h3.43Zm10.74,2.25h3.43V31.59h2.54V20.75h3.43V18.5h-9.39ZM64.6,37.18a4.56,4.56,0,0,0-3.43-1.27H56.43V49h4.74a4.56,4.56,0,0,0,3.43-1.27c1.5-1.46,1.31-3.38,1.31-5.35S66.1,38.63,64.6,37.18ZM62.81,45.9a2.28,2.28,0,0,1-1.88.8H59V38.21h1.92a2.28,2.28,0,0,1,1.88.8c.47.56.56,1.41.56,3.38S63.28,45.34,62.81,45.9Zm12.81-2.53A3.53,3.53,0,0,0,78,39.94a4,4,0,0,0-4.27-4H68.63V49h2.53V43.79H73L75.58,49h3Zm-2-1.74H71.17V38.21h2.44a1.72,1.72,0,1,1,0,3.43ZM80.74,49h8.63V46.7h-6.1V43.56h5.16v-2.3H83.27V38.21h6.1v-2.3H80.74Zm16.14-7.65-1.55-.24a2.23,2.23,0,0,1-1.22-.52,1.2,1.2,0,0,1-.38-.94c0-.89.66-1.64,2-1.64a3.77,3.77,0,0,1,2.68.89l1.64-1.6a5.63,5.63,0,0,0-4.22-1.5c-2.86,0-4.55,1.64-4.55,3.94a3.45,3.45,0,0,0,.89,2.58,4.51,4.51,0,0,0,2.58,1.08l1.55.23a2.11,2.11,0,0,1,1.17.47,1.33,1.33,0,0,1,.38,1.08c0,1.08-.8,1.64-2.3,1.64a4.14,4.14,0,0,1-3.14-1.13l-1.64,1.64a6,6,0,0,0,4.74,1.73c2.77,0,4.88-1.41,4.88-3.94a3.62,3.62,0,0,0-1-2.77,4.54,4.54,0,0,0-2.49-1Zm14.17-4.18a4.67,4.67,0,0,0-3.47-1.27h-4.69V49h4.69a4.67,4.67,0,0,0,3.47-1.27c1.46-1.46,1.31-3.38,1.31-5.35S112.51,38.63,111.05,37.18Zm-1.78,8.73a2.31,2.31,0,0,1-1.92.8h-1.92V38.21h1.92a2.3,2.3,0,0,1,1.92.8c.47.56.56,1.41.56,3.38S109.74,45.34,109.27,45.9Zm5.82,3.1h8.59V46.7h-6.05V43.56h5.16v-2.3h-5.16V38.21h6.05v-2.3h-8.59Zm18.63-5.07-5.16-8h-2.3V49h2.58V41L134,49h2.3V35.91h-2.58ZM59.86,14.09h2.53V3.3h3.43V1H56.43V3.3h3.43ZM76.8,11.84H70.7V8.65h5.16V6.4H70.7V3.3h6.1V1H68.16v13H76.8ZM88.67,10.1H86.09a2.19,2.19,0,0,1-2.21,1.83,2.11,2.11,0,0,1-1.64-.66c-.52-.56-.66-1.17-.66-3.71s.14-3.14.66-3.71a2.12,2.12,0,0,1,1.64-.66A2.19,2.19,0,0,1,86.09,5h2.58A4.65,4.65,0,0,0,83.84.91a4.81,4.81,0,0,0-3.52,1.45C79,3.67,79,5.32,79,7.57s0,3.9,1.27,5.21a4.81,4.81,0,0,0,3.52,1.45A4.65,4.65,0,0,0,88.67,10.1ZM93.6,8.65h4.46v5.44h2.53V1H98.06V6.4H93.6V1H91.06v13H93.6Zm12.81-2.58,5.21,8h2.25V1h-2.54V9l-5.21-8h-2.25v13h2.54Zm13.28-5h-2.54v13h2.54Zm6.9,10.89a4.44,4.44,0,0,1-3.14-1.08L121.8,12.5a6.07,6.07,0,0,0,4.78,1.74c2.72,0,4.83-1.45,4.83-4a3.68,3.68,0,0,0-1-2.77,4,4,0,0,0-2.49-1l-1.55-.24a2.64,2.64,0,0,1-1.22-.52,1.49,1.49,0,0,1-.38-.94c0-.89.66-1.64,2-1.64a3.51,3.51,0,0,1,2.68.89l1.64-1.6A5.66,5.66,0,0,0,126.86.91c-2.82,0-4.55,1.64-4.55,4a3.43,3.43,0,0,0,.94,2.58,4.52,4.52,0,0,0,2.53,1.08l1.55.23a2,2,0,0,1,1.17.42,1.52,1.52,0,0,1,.43,1.13C128.93,11.37,128.08,11.93,126.58,11.93Zm11.87,2.3a4.63,4.63,0,0,0,4.79-4.13h-2.58a2.15,2.15,0,0,1-2.21,1.83,2.12,2.12,0,0,1-1.64-.66c-.47-.56-.61-1.17-.61-3.71s.14-3.14.61-3.71a2.12,2.12,0,0,1,1.64-.66A2.15,2.15,0,0,1,140.66,5h2.58A4.6,4.6,0,0,0,138.45.91a4.85,4.85,0,0,0-3.57,1.45c-1.31,1.31-1.27,3-1.27,5.21s0,3.9,1.27,5.21A4.84,4.84,0,0,0,138.45,14.23Zm9.76-5.58h4.41v5.44h2.53V1h-2.53V6.4h-4.41V1h-2.58v13h2.58ZM167.12,3.3V1h-8.63v13h8.63V11.84H161V8.65h5.16V6.4H161V3.3ZM30,17V32.3H19.79V17H5.52L17.16,5.41H32.6L44.23,17ZM16.55,4,3.79,16.72V18.5H18.33V33.75H31.42V18.5h14.5V16.72L33.16,4Z" transform="translate(-0.88 -0.91)" fill="#002557"/><path d="M47.38,33.89,33.72,47.55H16L2.33,33.89V16.16L16,2.5H33.72L47.38,16.16ZM15.42,1,.88,15.59V34.46L15.42,49H34.33l14.5-14.55V15.59L34.33,1Z" transform="translate(-0.88 -0.91)" fill="#002557"/><path d="M34.33,21.41H44.52l0,11.36L32.6,44.64H17.16L5.24,32.77V21.41H15.42V36.66H34.33Zm-1.46,13.8h-16V20H3.79V33.33L16.55,46.09H33.16L45.92,33.33V20h-13Z" transform="translate(-0.88 -0.91)" fill="#002557"/><text transform="translate(197.82 34.87)" font-size="30" fill="#fff" font-family="UniSansSemiBold, UniSansSemiBold">dudle</text><rect x="187.87" y="7.34" width="78.75" height="35.5" rx="4" ry="4" fill="#e0b500"/><path d="M201.47,37.08h-.24a8.77,8.77,0,0,1-2.25-.29,6,6,0,0,1-1.93-.88,4.55,4.55,0,0,1-1.4-1.61,6.2,6.2,0,0,1-.66-2.44V26.3a4.89,4.89,0,0,1,.52-2.29,5.14,5.14,0,0,1,1.38-1.68,6.24,6.24,0,0,1,2-1,7.25,7.25,0,0,1,2.25-.36,6.53,6.53,0,0,1,2.85.63V15.5h3.3V35.88a19.54,19.54,0,0,1-2.94.9A14,14,0,0,1,201.47,37.08Zm.12-13.32a4.22,4.22,0,0,0-2.19.58,2.23,2.23,0,0,0-1.11,1.81v5.7a2.17,2.17,0,0,0,.35,1.15,2.5,2.5,0,0,0,.78.75,3.48,3.48,0,0,0,1.06.42,5.54,5.54,0,0,0,1.23.14A5.44,5.44,0,0,0,204,33.9V24.38A4.32,4.32,0,0,0,201.59,23.75Z" transform="translate(-0.88 -0.91)" fill="#fff"/><path d="M216.8,37.08a9.43,9.43,0,0,1-2.4-.3,5.38,5.38,0,0,1-2-1,4.72,4.72,0,0,1-1.33-1.68,5.59,5.59,0,0,1-.5-2.46V21.23h3.3v10.5a2.21,2.21,0,0,0,.33,1.12,2.51,2.51,0,0,0,.77.76,3.51,3.51,0,0,0,1,.45,4.85,4.85,0,0,0,1.21.15,4.73,4.73,0,0,0,1.19-.15,5.27,5.27,0,0,0,1.06-.39V21.23h3.27V35.79a18,18,0,0,1-3,.95A13.64,13.64,0,0,1,216.8,37.08Z" transform="translate(-0.88 -0.91)" fill="#fff"/><path d="M232.25,37.08H232a8.76,8.76,0,0,1-2.25-.29,6,6,0,0,1-1.93-.88,4.54,4.54,0,0,1-1.39-1.61,6.18,6.18,0,0,1-.66-2.44V26.3a4.88,4.88,0,0,1,.52-2.29,5.13,5.13,0,0,1,1.38-1.68,6.24,6.24,0,0,1,2-1,7.25,7.25,0,0,1,2.25-.36,6.53,6.53,0,0,1,2.85.63V15.5H238V35.88a19.56,19.56,0,0,1-2.94.9A14,14,0,0,1,232.25,37.08Zm.12-13.32a4.22,4.22,0,0,0-2.19.58,2.23,2.23,0,0,0-1.11,1.81v5.7a2.19,2.19,0,0,0,.35,1.15,2.52,2.52,0,0,0,.78.75,3.49,3.49,0,0,0,1.07.42,5.53,5.53,0,0,0,1.23.14,5.43,5.43,0,0,0,2.25-.42V24.38A4.32,4.32,0,0,0,232.37,23.75Z" transform="translate(-0.88 -0.91)" fill="#fff"/><path d="M247.37,37.08a6.34,6.34,0,0,1-4.46-1.42,5.06,5.06,0,0,1-1.54-3.92V15.53h3.3v16.2a2.18,2.18,0,0,0,.65,1.6,2.81,2.81,0,0,0,2.06.65Z" transform="translate(-0.88 -0.91)" fill="#fff"/><path d="M255,37.08a7.86,7.86,0,0,1-2.25-.33,6,6,0,0,1-2-1,5.11,5.11,0,0,1-1.39-1.67,4.92,4.92,0,0,1-.53-2.34V26.27a5,5,0,0,1,.53-2.35,4.91,4.91,0,0,1,1.39-1.67,6.15,6.15,0,0,1,2-1,7.84,7.84,0,0,1,2.25-.33,7.59,7.59,0,0,1,2.2.33,6,6,0,0,1,2,1,4.89,4.89,0,0,1,1.91,4v4.26H252.2v1.08a1.81,1.81,0,0,0,.24.95,2.55,2.55,0,0,0,1.48,1.15,3.53,3.53,0,0,0,1,.15,4.15,4.15,0,0,0,1.67-.34,2.4,2.4,0,0,0,1.21-1.22l2.76,1.59a5.41,5.41,0,0,1-1.09,1.39,7.3,7.3,0,0,1-1.38,1,6.2,6.2,0,0,1-1.54.6A6.67,6.67,0,0,1,255,37.08Zm2.88-10.74a1.82,1.82,0,0,0-.24-.94,2.23,2.23,0,0,0-.65-.69,2.85,2.85,0,0,0-.92-.42,4.09,4.09,0,0,0-1-.13,4.26,4.26,0,0,0-1.06.13,2.84,2.84,0,0,0-.93.42,2.18,2.18,0,0,0-.64.71,1.76,1.76,0,0,0-.21,1V27.8h5.7Z" transform="translate(-0.88 -0.91)" fill="#fff"/></svg>